<svg width="26" height="28" viewBox="0 0 26 28" fill="none" xmlns="http://www.w3.org/2000/svg">
<path d="M20.3803 0C20.6154 0 20.8034 0.14 20.8504 0.373333C21.2265 2.66 23.0128 4.43333 25.3162 4.80667C25.5043 4.80667 25.6923 5.04 25.8333 5.27333V9.56667C25.8333 13.58 24.5641 17.5 22.2607 20.8133C20.0043 24.0333 16.8547 26.5067 13.188 27.9533C13.094 28 13.047 28 13 28C12.906 28 12.859 27.9533 12.812 27.9533C9.1453 26.5067 5.99573 24.0333 3.73932 20.8133C1.38889 17.5 0.166667 13.6267 0.166667 9.56667V5.27333C0.166667 5.04 0.307693 4.85333 0.542735 4.80667C2.79915 4.48 4.63248 2.61333 5.00855 0.373333C5.05556 0.186667 5.24359 0 5.47863 0H20.3803ZM19.9573 0.886667H5.8547C5.33761 3.26667 3.45727 5.08667 1.05983 5.64667V9.52C1.05983 13.3933 2.23504 17.08 4.44444 20.2533C6.55983 23.2867 9.47436 25.5733 12.906 26.9733C16.3376 25.62 19.2521 23.2867 21.3675 20.2533C23.5769 17.08 24.7521 13.3933 24.7521 9.52V5.64667C22.3547 5.08667 20.4744 3.26667 19.9573 0.886667ZM17.0427 9.75333C17.2308 9.56667 17.5598 9.61333 17.6538 9.84667C17.8419 10.0333 17.7949 10.36 17.6068 10.5L11.1667 15.68C11.1197 15.7267 10.9786 15.7733 10.8846 15.7733H10.8376C10.6966 15.7733 10.6026 15.68 10.5085 15.5867L8.0641 12.2267C7.92308 11.9933 7.97009 11.7133 8.15812 11.5733C8.39316 11.4333 8.67521 11.48 8.81624 11.6667L10.9786 14.6067L17.0427 9.75333Z" fill="white"/>
</svg>
